<?xml version="1.0" encoding="UTF-8" standalone="no"?>
<svg width="27px" height="29px" viewBox="0 0 27 29" version="1.1" xmlns="http://www.w3.org/2000/svg" xmlns:xlink="http://www.w3.org/1999/xlink">
    <!-- Generator: Sketch 42 (36781) - http://www.bohemiancoding.com/sketch -->
    <title>Nedbank logo new</title>
    <desc>Created with Sketch.</desc>
    <defs></defs>
    <g id="Page-1" stroke="none" stroke-width="1" fill="none" fill-rule="evenodd">
        <g id="small" transform="translate(-1.000000, -1.000000)" fill="#FFFFFF">
            <g id="Nedbank-logo-new" transform="translate(1.000000, 1.000000)">
                <path d="M19.6680965,0.00851637053 L26.9900421,5.02542171 L26.9900421,23.0492048 L19.6680965,28.0677506 L13.4935173,23.8395345 L7.35115099,28.0688443 L0.0250618812,23.0493415 L0.0250618812,5.0393663 L7.34994802,0.00687583141 L13.4935173,4.2352287 L19.6680965,0.00851637053 Z M25.8417134,5.60912553 L19.714852,1.37913212 L13.5879906,5.60912553 L7.46126287,1.37913212 L1.18135693,5.60912553 L1.18135693,22.3720176 L7.46126287,26.6018743 L13.5879906,22.3720176 L19.714852,26.6018743 L25.8417134,22.3720176 L25.8417134,5.60912553 Z" id="Combined-Shape"></path>
                <path d="M7.46126287,18.1421609 L12.3626985,21.5886601 L7.46126287,25.0352961 L7.46126287,18.1421609 Z M19.714852,11.4055604 L19.714852,2.94584698 L24.4631094,6.23567476 L24.4631094,21.4319886 L2.40664901,6.39234625 L7.46126287,2.94584698 L19.714852,11.4055604 Z" id="Fill-14"></path>
            </g>
        </g>
    </g>
</svg>
